<svg width="224" height="471" viewBox="0 0 224 471" fill="none" xmlns="http://www.w3.org/2000/svg">
<path fill-rule="evenodd" clip-rule="evenodd" d="M96.7714 15.9062C102.771 9.23957 108.771 5.50623 118.371 2.43956C134.638 -2.76044 143.171 0.172888 149.038 12.9729C152.238 19.9062 152.638 22.4396 153.305 42.5729C153.705 54.7062 154.638 65.5062 155.305 66.7062C156.105 67.9062 158.905 70.8396 161.571 73.1062C172.371 82.4395 189.438 116.84 192.638 135.773C195.705 153.24 197.705 194.84 196.771 222.306L195.838 248.04L190.638 255.906C185.571 263.906 173.838 296.706 174.371 301.906C174.638 305.773 189.571 349.24 195.171 362.573C204.238 384.44 219.705 427.906 218.638 428.573C217.971 428.973 218.905 431.773 220.771 434.973C224.905 442.306 224.771 443.906 219.971 448.573L215.971 452.44L219.571 454.04L223.305 455.64L219.305 455.773C216.638 455.906 213.971 457.24 211.438 459.906C209.305 462.173 204.905 465.506 201.438 467.373L195.305 470.573L187.281 469.5C187.241 469.137 187.006 468.664 186.638 468.04C184.371 463.64 185.171 459.24 188.771 455.773C194.105 450.84 197.305 443.506 197.305 436.306C197.171 430.973 195.438 426.573 187.571 411.24C169.971 377.373 156.638 353.373 155.838 354.306C155.438 354.84 151.571 364.973 147.305 376.973L139.571 398.573L142.105 409.506C144.105 418.84 145.438 421.506 150.505 427.24C159.705 437.506 163.705 440.04 170.638 439.906C179.705 439.506 179.971 439.64 179.971 443.106C179.971 446.973 170.238 455.906 166.105 455.906C164.505 455.906 160.638 454.573 157.305 453.106C153.038 451.24 149.038 450.44 143.305 450.706C138.905 450.84 133.305 450.973 131.038 450.973C127.838 450.973 126.638 451.64 126.638 453.24C126.638 456.04 124.105 458.573 121.305 458.573C120.105 458.573 116.105 460.573 112.505 462.973C106.505 466.973 105.171 467.24 94.9048 467.24C82.6381 467.24 81.5714 466.573 82.3714 459.24C82.9048 455.106 83.7048 454.173 89.0381 451.906C99.0381 447.506 103.038 443.64 105.838 435.773C107.438 431.373 107.838 428.573 107.038 428.306C106.238 428.04 104.771 427.106 103.571 426.173C101.571 424.706 101.838 422.84 105.571 405.773L109.705 387.106L103.038 377.773C99.3048 372.706 95.4381 366.706 94.2381 364.573C91.8381 359.64 87.8381 344.706 88.2381 342.306C88.9048 339.106 81.5714 339.64 75.5714 343.106C72.3714 344.973 68.9048 346.573 67.8381 346.573C66.6381 346.573 64.7714 349.106 63.3048 352.173C61.9714 355.24 57.1714 365.64 52.5048 375.24C47.9714 384.84 41.3048 399.773 37.8381 408.573C31.8381 423.773 31.7048 424.84 32.5048 434.173C33.5714 447.373 35.8381 452.44 42.2381 455.773C53.3048 461.373 53.1714 465.773 41.9714 467.106C31.7048 468.306 28.2381 466.44 24.6381 457.64C20.9048 448.306 18.2381 445.64 11.3048 444.573C8.10477 444.173 4.10477 442.706 2.37144 441.24C1.04209 440.199 0.288997 439.61 0.0687019 438.863C-0.219203 437.887 0.402921 436.643 1.8381 433.773C3.17144 430.84 6.50477 425.506 9.30477 421.906C18.6381 409.506 22.5048 392.173 22.6381 361.906C22.6381 355.906 23.5714 347.64 24.6381 343.506C25.7048 339.24 26.6381 335.24 26.6381 334.706C26.6381 334.04 23.9714 333.106 20.6381 332.706C17.3048 332.173 14.6381 331.506 14.6381 331.106C14.6381 330.84 19.7048 323.106 25.8381 314.173C39.7048 294.04 51.4381 271.773 57.9714 253.24C60.7714 245.506 67.7048 228.173 73.5714 214.706L84.2381 190.306L81.3048 187.24C79.1714 184.973 77.4381 179.24 74.5048 164.306C73.9452 161.473 73.3948 158.677 72.8801 156.062C71.4324 148.708 70.2665 142.785 69.9714 141.506L69.1714 138.44L65.7048 141.24C58.9048 146.573 49.9714 144.173 39.1714 134.306C32.9048 128.573 31.9714 126.573 35.4381 126.573C36.6381 126.573 39.5714 124.573 41.8381 122.173C48.1048 116.04 49.9714 104.973 48.9048 80.7062C48.2381 68.5729 48.5048 60.0396 49.4381 56.5729C51.8381 47.7729 68.2381 34.5729 76.6381 34.5729C84.6381 34.5729 97.7048 44.8396 97.7048 51.1062C97.7048 52.9729 98.5048 55.2396 99.4381 56.0396C101.038 57.2396 101.305 56.5729 101.305 51.7729C101.305 48.5729 100.371 44.7062 99.3048 43.3729C98.2381 41.9062 97.3048 39.9062 97.3048 38.9729C97.3048 38.0396 96.1048 36.0396 94.6381 34.5729C90.1048 30.0396 91.0381 22.3062 96.7714 15.9062ZM117.705 37.7729C115.038 36.5729 111.705 34.1729 110.371 32.4396C107.171 28.5729 106.638 28.4396 102.105 32.0396C99.1714 34.3062 98.6381 35.6396 99.3048 38.4396C99.8381 40.3062 101.038 42.8396 102.105 44.0396C103.171 45.2396 103.971 48.8396 103.971 52.8396C103.971 59.3729 103.971 59.5062 109.305 61.2395C113.438 62.5729 114.638 63.6396 114.638 66.0396C114.638 67.7729 115.971 70.7062 117.705 72.5729L120.638 76.0396L127.305 71.3729L133.971 66.5729L135.038 71.5062C135.705 74.3062 135.838 79.6395 135.571 83.5062L134.905 90.4396L140.771 89.6395C147.971 88.7062 156.638 91.7729 161.705 96.9729C167.171 102.706 174.105 115.24 177.971 126.306C179.971 131.906 183.571 141.64 185.971 147.906C188.505 154.173 190.771 160.173 191.171 161.24C192.771 165.506 190.371 136.84 188.505 129.64C186.105 120.173 175.971 100.573 169.971 93.5062C164.505 87.1062 158.105 84.7062 149.571 85.6395L143.438 86.3062L149.705 80.7062L155.971 75.2395L154.105 69.9062C153.038 66.9729 151.838 61.2395 151.305 57.2395C150.505 50.8395 149.838 49.5062 146.371 47.5062C142.105 45.1062 139.971 45.5062 139.971 48.7062C139.971 49.7729 138.771 50.5729 137.038 50.4396C134.771 50.3062 134.638 50.0395 136.238 49.6395C139.171 48.8395 140.371 44.8395 139.438 39.1062C138.371 33.7729 135.038 31.5062 131.305 33.5062C127.838 35.5062 126.638 37.2396 126.638 40.8396C126.638 44.3062 124.638 44.9729 123.438 41.9062C123.038 40.7062 120.505 38.8395 117.705 37.7729ZM105.438 66.4396C103.305 65.2396 100.771 62.4396 99.7048 60.4396C98.2381 57.2396 97.0381 56.5729 92.6381 56.3062C84.5048 55.9062 83.9714 56.5729 83.8381 65.6395C83.8381 70.1729 83.4381 73.1062 83.0381 72.1729C81.8381 69.2396 77.4381 70.3062 76.5048 73.9062C75.7048 77.3729 78.7714 83.9062 81.3048 83.9062C82.1048 83.9062 82.6381 84.8395 82.6381 85.9062C82.6381 87.1062 83.8381 90.3062 85.3048 93.2395C86.7714 96.1729 87.9714 100.173 87.9714 102.173C87.9714 104.84 89.1714 106.706 92.3714 108.84C94.7714 110.573 99.9714 114.573 103.838 117.906C107.838 121.24 111.171 123.773 111.571 123.506C111.838 123.24 110.905 120.173 109.438 116.84C107.971 113.506 106.505 107.906 106.105 104.306L105.305 97.9062L107.705 105.906C110.771 115.906 117.038 130.04 119.438 132.04C120.771 133.106 121.838 131.106 124.505 122.306C126.505 116.173 127.971 109.506 127.971 107.506C127.971 105.506 128.771 101.906 129.838 99.5062C132.371 93.3729 133.705 83.2395 132.638 77.2395L131.705 72.0396L126.371 75.6395L120.905 79.1062L116.638 74.1729C113.305 70.4396 111.971 69.5062 111.171 70.8396C109.571 73.3729 109.705 77.2396 111.705 83.1062C113.038 87.5062 113.038 88.7062 111.438 90.3062C109.171 92.5729 92.7714 94.1729 91.4381 92.1729C90.9048 91.2396 92.5048 91.1062 95.8381 91.5062C101.171 92.1729 110.638 89.9062 110.638 87.9062C110.638 84.3062 107.705 80.0395 105.038 79.6395C102.105 79.1062 102.105 78.9729 105.838 77.5062C108.771 76.1729 109.305 75.5062 108.105 74.0396C107.038 72.7062 106.905 71.9062 107.971 71.2395C110.105 69.9062 109.571 68.7062 105.438 66.4396ZM107.971 65.9062C112.371 68.1729 113.305 67.2396 109.705 64.4396C107.305 62.7062 103.971 61.9062 103.971 63.2395C103.971 63.5062 105.838 64.7062 107.971 65.9062ZM82.5048 105.64C85.3048 104.973 85.5714 104.306 84.9048 98.9729C83.8381 89.7729 81.9714 89.3729 80.1048 98.0395C79.3048 102.306 78.7714 105.906 79.0381 106.04C79.3048 106.306 80.7714 106.04 82.5048 105.64ZM163.171 107.24C160.505 103.24 156.638 98.7062 154.638 97.2395C149.438 93.5062 144.105 92.8395 138.905 95.2395C134.371 97.2395 131.971 101.64 131.971 107.906C131.971 110.04 135.971 119.64 140.771 129.106L149.438 146.44L162.371 140.44C163.474 139.919 164.551 139.412 165.584 138.926C171.171 136.294 175.48 134.265 175.705 134.04C176.638 132.973 167.971 114.306 163.171 107.24ZM100.505 126.44C104.105 121.106 103.171 119.106 93.3048 112.706C88.2381 109.373 83.3048 106.573 82.3714 106.573C81.4381 106.573 82.5048 107.64 84.6381 109.106C90.3714 112.573 93.1714 116.04 95.8381 123.24L98.2381 129.64L100.505 126.44ZM91.3048 118.573C90.2381 116.44 87.7048 113.506 85.8381 112.04C81.8381 108.84 78.7714 108.44 78.1048 110.84C78.0217 111.13 77.8482 111.809 77.6042 112.763C77.0648 114.872 76.1813 118.326 75.1714 121.906C73.8381 126.973 72.7714 134.173 72.7714 137.906C73.0381 148.44 81.0381 180.04 84.3714 183.64C85.9714 185.373 95.5714 193.106 105.571 200.706C115.571 208.306 124.238 215.773 124.638 217.373L125.571 220.173L128.771 217.106C132.371 213.773 132.905 211.906 130.105 211.906C129.038 211.906 120.905 202.84 112.105 191.773L95.9714 171.506V158.706C95.9714 142.173 93.7048 123.373 91.3048 118.573ZM148.371 151.906C147.438 151.906 143.838 146.706 140.371 140.306C136.905 133.906 133.038 126.173 131.705 123.24C129.838 118.573 129.438 118.306 128.505 120.573C128.313 121.101 127.999 121.941 127.621 122.955C126.949 124.756 126.073 127.107 125.305 129.24C123.305 134.44 123.171 135.64 124.905 139.64C126.905 144.44 126.638 147.64 123.038 159.373C121.171 165.373 121.171 167.906 123.171 185.773C124.505 196.706 126.238 206.706 127.038 208.04C129.438 212.04 141.438 212.04 145.838 208.173C147.171 206.973 152.505 197.24 157.571 186.706L166.905 167.373L158.371 159.773C153.838 155.506 149.305 152.04 148.371 151.906ZM119.038 159.373C121.438 145.24 120.771 142.173 113.171 132.44C110.105 128.44 107.171 125.24 106.505 125.24C104.905 125.24 101.705 130.44 99.3048 137.106C97.7048 141.64 97.5714 145.906 98.2381 156.44L99.0381 169.906L108.238 182.173C113.171 188.973 117.438 194.573 117.705 194.573C117.838 194.573 117.838 189.373 117.571 182.973C117.305 176.44 117.971 165.906 119.038 159.373ZM186.771 175.64C189.705 169.906 189.438 168.44 183.171 148.84C181.305 143.24 179.038 138.706 178.238 138.706C176.238 138.973 154.905 149.64 154.771 150.573C154.771 150.973 157.971 154.84 161.971 159.24C165.971 163.64 169.305 167.773 169.305 168.44C169.305 169.773 149.838 207.64 147.838 210.04C147.171 210.973 143.971 212.306 140.905 213.106C136.238 214.306 127.971 219.773 127.971 221.64C127.971 221.906 129.438 221.906 131.305 221.506C134.905 220.84 135.305 221.906 133.438 226.973C131.971 230.706 133.438 231.906 139.838 231.906C145.305 231.906 149.171 228.44 150.105 222.706C150.771 218.573 154.105 214.04 167.571 199.106C176.638 188.973 185.305 178.44 186.771 175.64ZM192.905 243.906C194.238 243.906 194.638 239.906 194.505 225.506C194.371 215.506 193.971 199.24 193.438 189.373L192.638 171.373L189.171 176.706C187.171 179.506 178.371 190.04 169.571 199.906C156.105 214.84 153.171 218.973 151.971 224.306C150.105 231.506 147.438 233.64 139.571 233.506C126.105 233.24 144.771 238.04 170.505 241.24C181.838 242.706 191.971 243.906 192.905 243.906ZM120.505 217.106C120.238 215.906 113.305 210.306 105.171 204.706C97.0381 198.973 89.5714 194.04 88.6381 193.773C84.9048 192.306 72.3714 221.24 64.6381 248.84C55.3048 282.306 43.8381 305.64 29.7048 320.04L23.7048 326.173L29.5714 327.106C76.2381 333.906 97.0381 330.973 114.505 315.106C123.438 307.106 130.638 290.306 130.638 277.373C130.638 272.44 122.505 223.773 120.505 217.106ZM129.838 227.906C130.105 227.906 130.638 226.973 131.171 225.906C131.571 224.84 131.305 223.906 130.638 223.906C129.838 223.906 129.305 224.84 129.305 225.906C129.305 226.973 129.571 227.906 129.838 227.906ZM110.638 381.106C112.638 377.506 119.971 342.173 119.971 336.44C119.971 331.24 119.705 330.573 116.905 330.573C113.705 330.573 110.105 333.773 105.971 340.173C104.238 343.106 102.638 343.906 99.1714 343.906C93.8381 343.906 93.7048 344.84 96.6381 356.573C99.1714 366.44 109.171 383.773 110.638 381.106ZM59.9714 344.84C59.9714 343.906 58.2381 341.506 56.2381 339.506C51.8381 335.24 47.7048 335.106 41.3048 338.573C38.7714 340.04 35.3048 341.106 33.8381 341.24C28.5048 341.24 26.5048 348.706 24.6381 375.106C22.6381 401.64 19.4381 414.173 12.7714 421.106C10.9048 423.106 9.30477 425.24 9.30477 425.906C9.30477 426.44 11.8381 429.773 14.7714 433.106C17.8381 436.44 22.7714 443.106 25.8381 447.906C29.3048 453.506 32.3714 456.706 34.1048 456.973C36.9048 457.373 36.9048 457.373 33.8381 450.973C31.7048 446.84 30.3714 440.973 29.8381 434.44C28.9048 424.44 29.0381 424.04 36.6381 403.773C40.9048 392.44 47.8381 374.973 52.2381 364.84C56.5048 354.84 59.9714 345.773 59.9714 344.84ZM162.771 441.506C160.505 440.573 155.305 436.04 151.038 431.506C144.638 424.706 142.771 421.506 140.505 413.906C138.771 408.173 137.438 405.373 136.905 406.573C133.571 414.573 127.971 431.24 127.971 433.24C127.971 435.106 129.305 435.906 133.705 436.573C136.771 437.106 143.705 439.64 149.038 442.173C158.371 446.573 165.305 447.506 166.238 444.573C166.505 443.773 164.905 442.44 162.771 441.506Z" fill="#EC4899"/>
</svg>
